<svg xmlns="http://www.w3.org/2000/svg" xmlns:xlink="http://www.w3.org/1999/xlink" width="187" height="62" viewBox="0 0 187 62">
  <defs>
    <filter id="Path_342" x="0" y="0" width="187" height="62" filterUnits="userSpaceOnUse">
      <feOffset dy="2" input="SourceAlpha"/>
      <feGaussianBlur stdDeviation="4" result="blur"/>
      <feFlood flood-opacity="0.161"/>
      <feComposite operator="in" in2="blur"/>
      <feComposite in="SourceGraphic"/>
    </filter>
  </defs>
  <g id="Group_62" data-name="Group 62" transform="translate(-6 -3)">
    <g transform="matrix(1, 0, 0, 1, 6, 3)" filter="url(#Path_342)">
      <path id="Path_342-2" data-name="Path 342" d="M0,0H163V38H0Z" transform="translate(12 10)" fill="none"/>
    </g>
    <g id="Group_55" data-name="Group 55" transform="translate(-1188.785 -83.801)">
      <path id="Path_71" data-name="Path 71" d="M2525.637,121.114c-.227.109-5.963,2.962-6.221,3.095a.631.631,0,0,1-.477-.016c-.524-.258-4.807-2.376-5.737-2.837-.148-.07-.3-.148-.445-.219-.062-.031-.133-.063-.2-.094h-.008a.161.161,0,0,1-.008-.274h.008c.711-.414,5.447-3.142,6.213-3.572a1.017,1.017,0,0,1,.813-.031c1.946,1.086,3.869,2.2,6.065,3.478.063.039.125.078.188.109a.155.155,0,0,1-.008.274A.666.666,0,0,0,2525.637,121.114Z" transform="translate(-1289.627 -11.144)" fill="#4f7dad"/>
      <path id="Path_72" data-name="Path 72" d="M2387.17,19.289c-.008-.242-.008-.477-.024-.711A19.539,19.539,0,0,0,2367.631,0c-.61,0-1.211.023-1.805.078a19.41,19.41,0,0,0-10.856,4.58,19.666,19.666,0,0,0-3.228,3.509,19.565,19.565,0,0,0-2.1,18.976,19.521,19.521,0,0,0,5.4,7.323,19.442,19.442,0,0,0,11.543,4.58c.352.016.7.031,1.055.031a19.479,19.479,0,0,0,11.145-3.486c.125-.086.258-.18.383-.274l.375-.281a19.5,19.5,0,0,0,7.636-14.99c.008-.156.008-.32.008-.477A1.747,1.747,0,0,1,2387.17,19.289Zm-18.109,8.683c2.454-1.422,4.705-2.712,6.917-4.056a1.238,1.238,0,0,0,.4-.922c.055-1.071-.008-2.9.031-3.978,0-.5.008-.938.031-1.313a.79.79,0,0,1,.414-.649l1.157-.6.656-.344a.251.251,0,0,1,.367.219c.016,2.493.039,5.588-.023,8.019a1.866,1.866,0,0,1-.719,1.352c-3.22,1.946-6.495,3.814-9.754,5.7-1.172.68-2.126.133-2.126-1.219-.008-.578-.008-1.149-.008-1.727h0c-.008-.406-.008-.813-.008-1.219-.008-2.368-.008-4.744.016-7.12a1.606,1.606,0,0,0-1.04-1.719c-2.055-.961-4.056-2.032-6.276-3.157,0,2.821-.024,5.44.031,8.066.008.3.422.672.735.868.829.539,2.962,1.735,3.814,2.251.273.164.524.32.743.461a.412.412,0,0,1,.2.352l.008,2.251a.358.358,0,0,1-.54.313c-2.087-1.2-5.049-2.931-6.924-4.08a1.726,1.726,0,0,1-.719-1.235c-.055-3.767-.062-7.534.008-11.3a2.005,2.005,0,0,1,.844-1.422q4.783-2.884,9.667-5.6a1.87,1.87,0,0,1,1.532.008c3.251,1.813,6.471,3.689,9.691,5.557,1.251.727,1.251,1.837-.023,2.509-.336.18-.672.36-1.016.531s-.68.352-1.016.531c-.508.266-1.016.531-1.532.789q-2.3,1.184-4.6,2.337a1.449,1.449,0,0,0-.946,1.516C2369.085,22.548,2369.061,25.142,2369.061,27.972Z" transform="translate(-1138.1 96.801)" fill="#3a4d5e"/>
      <path id="Path_73" data-name="Path 73" d="M2525.824,120.92l-.187.094c-.227.109-5.963,2.962-6.221,3.095a.632.632,0,0,1-.477-.016c-.523-.258-4.806-2.376-5.737-2.837-.148-.07-.3-.148-.445-.219-.063-.031-.133-.063-.2-.094h-.008a.161.161,0,0,1-.008-.274h.008c.711-.414,5.447-3.142,6.213-3.572a1.017,1.017,0,0,1,.813-.031c1.946,1.086,3.869,2.2,6.065,3.478.062.039.125.078.188.109A.149.149,0,0,1,2525.824,120.92Z" transform="translate(-1289.627 -11.052)" fill="#cc4e49"/>
    </g>
    <g id="Group_56" data-name="Group 56" transform="translate(-60 -526.483)">
      <path id="Path_24" data-name="Path 24" d="M116.723,1118.989c0,2.315-2.054,3.415-4.861,3.415H106.2l2.161-10.8h5.218c2.334,0,3.627.878,3.627,2.469a2.89,2.89,0,0,1-1.929,2.759A2.191,2.191,0,0,1,116.723,1118.989Zm-2.489-.029c0-.8-.637-1.109-1.62-1.109h-3.029l-.521,2.672h2.952C113.386,1120.513,114.235,1119.992,114.235,1118.96Zm-3.781-5.479-.511,2.546h2.546c1.293,0,2.083-.521,2.083-1.524,0-.714-.588-1.022-1.592-1.022Z" transform="translate(26.916 -566.216)" fill="#cc4e49"/>
      <path id="Path_25" data-name="Path 25" d="M232.361,1111.6h2.517l-2.161,10.8H230.2Z" transform="translate(-85.124 -566.216)" fill="#cc4e49"/>
      <path id="Path_26" data-name="Path 26" d="M287.983,1113.221l-7.273,7.147h6.048l-.415,2.035H276.9l.328-1.62,7.282-7.147h-5.691l.415-2.035h9.076Z" transform="translate(-127.32 -566.216)" fill="#cc4e49"/>
      <path id="Path_27" data-name="Path 27" d="M76.331,1260.6h2.257l-2.045,10.244H82.9l-.386,1.91H73.9Z" transform="translate(56.1 -700.845)" fill="#3c4e61"/>
      <path id="Path_28" data-name="Path 28" d="M182.1,1266.011a7.113,7.113,0,0,1,7.446-7.311c3.665,0,5.816,2.122,5.816,5.189a7.113,7.113,0,0,1-7.446,7.311C184.251,1271.21,182.1,1269.088,182.1,1266.011Zm10.986-1.977c0-2-1.321-3.347-3.752-3.347a4.923,4.923,0,0,0-4.967,5.189c0,2,1.3,3.347,3.733,3.347A4.933,4.933,0,0,0,193.086,1264.034Z" transform="translate(-41.664 -699.128)" fill="#3c4e61"/>
      <path id="Path_29" data-name="Path 29" d="M342.8,1264.906h2.132l-.993,4.9a7.394,7.394,0,0,1-4.533,1.5c-3.646,0-5.9-2.1-5.9-5.189a7.141,7.141,0,0,1,7.552-7.311,5.906,5.906,0,0,1,4.881,2l-1.63,1.35a3.975,3.975,0,0,0-3.347-1.37,4.967,4.967,0,0,0-5.17,5.189c0,2,1.321,3.347,3.887,3.347a5.088,5.088,0,0,0,2.363-.569Z" transform="translate(-178.46 -699.218)" fill="#3c4e61"/>
      <path id="Path_30" data-name="Path 30" d="M472.331,1260.6h2.257l-2.431,12.153H469.9Z" transform="translate(-301.704 -700.845)" fill="#3c4e61"/>
      <path id="Path_31" data-name="Path 31" d="M519.8,1269.783l.955-1.775a6.416,6.416,0,0,0,3.955,1.322c1.775,0,2.913-.646,2.913-1.717,0-2.257-6.125-1.08-6.125-4.987,0-2.392,2.151-3.926,5.3-3.926a7.725,7.725,0,0,1,4.061,1.022l-.887,1.784a5.98,5.98,0,0,0-3.3-.936c-1.842,0-2.932.743-2.932,1.8,0,2.276,6.125,1.167,6.125,4.881,0,2.411-2.17,3.945-5.363,3.945A7.625,7.625,0,0,1,519.8,1269.783Z" transform="translate(-346.791 -699.128)" fill="#3c4e61"/>
      <path id="Path_32" data-name="Path 32" d="M647.732,1262.51H643.7l.386-1.91H654.4l-.4,1.91H649.97l-2.035,10.243h-2.257Z" transform="translate(-458.74 -700.845)" fill="#3c4e61"/>
      <path id="Path_33" data-name="Path 33" d="M748,1266.011a7.123,7.123,0,0,1,7.485-7.311,5.263,5.263,0,0,1,4.62,2.035l-1.63,1.37a3.624,3.624,0,0,0-3.144-1.428,4.943,4.943,0,0,0-5.054,5.189c0,2.016,1.321,3.347,3.8,3.347a4.619,4.619,0,0,0,3.453-1.408l1.321,1.428a6.318,6.318,0,0,1-4.948,1.958C750.209,1271.21,748,1269.088,748,1266.011Z" transform="translate(-552.979 -699.128)" fill="#3c4e61"/>
      <path id="Path_34" data-name="Path 34" d="M867.9,1269.783l.955-1.775a6.416,6.416,0,0,0,3.955,1.322c1.775,0,2.913-.646,2.913-1.717,0-2.257-6.125-1.08-6.125-4.987,0-2.392,2.151-3.926,5.3-3.926a7.726,7.726,0,0,1,4.061,1.022l-.887,1.784a5.981,5.981,0,0,0-3.3-.936c-1.842,0-2.932.743-2.932,1.8,0,2.276,6.125,1.167,6.125,4.881,0,2.411-2.17,3.945-5.363,3.945A7.646,7.646,0,0,1,867.9,1269.783Z" transform="translate(-661.314 -699.128)" fill="#3c4e61"/>
    </g>
  </g>
</svg>
