<svg xmlns="http://www.w3.org/2000/svg" width="1599.5381" height="276.9215" viewBox="0 0 1599.5381 276.9215">
  <g id="Layer_2" data-name="Layer 2">
    <g id="Sketch_bord" data-name="Sketch bord">
      <g>
        <path d="M452.17.0879Q449.7408,0,447.2941,0a137.1146,137.1146,0,0,0-88.6688,32.3451A137.7078,137.7078,0,1,0,452.17.0879Zm4.811,197.0631c17.343-10.0856,33.2487-19.1735,48.9079-28.6607,1.7014-1.0208,2.74-4.2536,2.8454-6.5182.37-7.5921-.07-20.4879.2113-28.0975,0-3.5319.07-6.6063.2288-9.2817a5.481,5.481,0,0,1,2.9159-4.5644l8.1729-4.2713,4.6173-2.4114a1.7833,1.7833,0,0,1,2.605,1.5665c.088,17.6423.2992,39.503-.1408,56.6524-.088,3.3032-2.3761,7.9264-5.0809,9.5633-22.776,13.7408-45.88,26.9709-68.938,40.254-8.3077,4.7816-15.0079.95-15.0431-8.6422-.0176-4.0777-.0528-8.12-.0528-12.1976v-.0176c-.0177-2.8807-.0353-5.7439-.0353-8.6246q-.1054-25.1522.1233-50.2926c.07-5.9609-1.6135-9.4753-7.3281-12.1448-14.4975-6.7822-28.6429-14.3391-44.3666-22.3182,0,19.93-.1761,38.4644.2287,56.9867.0529,2.13,2.9688,4.7289,5.1807,6.1546,5.89,3.8077,20.963,12.2445,26.9415,15.9q2.8955,1.7692,5.2686,3.2857a2.9074,2.9074,0,0,1,1.373,2.4817l.0352,15.9a2.529,2.529,0,0,1-3.796,2.2178c-14.7616-8.49-35.6718-20.7225-48.9548-28.8367a12.2287,12.2287,0,0,1-5.0809-8.7008c-.3872-26.6248-.44-53.2612.0529-79.886.07-3.4615,2.9687-8.2255,5.9726-10.05q33.7942-20.3736,68.3043-39.5734c2.8162-1.5666,7.9969-1.4961,10.8248.07,23.0048,12.79,45.7279,26.0616,68.48,39.2917,8.8416,5.1513,8.824,12.9839-.1936,17.73-2.388,1.2672-4.7758,2.5286-7.1872,3.7783-2.3879,1.25-4.7758,2.511-7.1871,3.7608q-5.4036,2.8161-10.8072,5.603-16.2108,8.3871-32.5446,16.5393c-4.811,2.4055-6.8,5.1806-6.6943,10.7015C457.1919,158.81,456.9807,177.1384,456.9807,197.151Z" fill="#3a4d5e"/>
        <path d="M494.7939,91.8019c-.4576.2288-.8976.44-1.3377.6688-1.5782.7921-3.1447,1.5666-4.6877,2.3586-9.9682,4.9519-19.2616,9.5927-28.3966,14.1279-1.76.8566-3.5144,1.7367-5.2569,2.5815q-2.8427,1.3993-5.6559,2.7929a3.642,3.642,0,0,1-1.7191.2816,4.4464,4.4464,0,0,1-2.0064-.3873c-3.7081-1.8071-7.416-3.6376-11.1592-5.48-3.4616-1.725-6.976-3.4616-10.5431-5.2394-6.0431-2.9862-12.2622-6.0782-18.8157-9.3462-1.0385-.51-2.0946-1.0385-3.1506-1.5664-.4517-.2289-.927-.4577-1.3847-.6866a.0616.0616,0,0,1-.0352-.0175,1.1231,1.1231,0,0,1-.0528-1.9128c.0176,0,.0176-.0174.0352-.0174,5.0575-2.9336,9.8919-5.7322,14.5679-8.437,1.5431-.8976,3.092-1.7894,4.6233-2.6695.2934-.1759.5926-.3519.8918-.528,2.5522-1.4726,5.0457-2.9159,7.5039-4.3241,5.521-3.18,10.9128-6.2542,16.31-9.2933a7.1345,7.1345,0,0,1,3.4909-.7275,5.315,5.315,0,0,1,2.6167.5162c13.7407,7.6977,27.364,15.6065,42.8765,24.5831.44.2816.8977.528,1.3377.792A1.0926,1.0926,0,0,1,494.7939,91.8019Z" fill="#cc4e49"/>
        <g>
          <path d="M780.2744,76.7594c0,24-21.28,35.36-50.4,35.36H671.1523L693.5527.1168h54.0811c24.1611,0,37.6016,9.12,37.6016,25.6006,0,14.081-8.16,23.6806-20.001,28.6406C774.6748,58.1988,780.2744,65.7184,780.2744,76.7594Zm-25.76-.32c0-8.32-6.56-11.52-16.8007-11.52h-31.36l-5.44,27.6806h30.5605C745.7139,92.5992,754.5146,87.1588,754.5146,76.4391ZM715.3135,19.6373l-5.28,26.4014h26.4c13.44,0,21.6006-5.44,21.6006-15.8408,0-7.36-6.08-10.5606-16.4805-10.5606Z" fill="#cc4e49"/>
          <path d="M817.5527.1168h26.08l-22.4,112.0029h-26.081Z" fill="#cc4e49"/>
          <path d="M956.752,16.9176,881.3906,91h62.7217l-4.32,21.12H841.87L845.23,95.3189l75.5225-74.081H861.71L866.03.1168h94.082Z" fill="#cc4e49"/>
        </g>
        <path d="M664.1064,149.1266h23.399L666.2666,255.3229h65.877l-3.96,19.7988H638.9077Z" fill="#3c4e61"/>
        <path d="M747.09,223.1041c0-42.6582,30.7793-75.7773,77.2178-75.7773,37.9776,0,60.2969,21.9589,60.2969,53.8183,0,42.6582-30.7783,75.7764-77.2168,75.7764C769.4092,276.9215,747.09,254.9625,747.09,223.1041Zm113.9356-20.5195c0-20.6992-13.6787-34.7383-38.8779-34.7383-31.6787,0-51.4786,24.6592-51.4786,53.8174,0,20.6992,13.5,34.7383,38.6993,34.7383C841.0469,256.402,861.0254,231.7438,861.0254,202.5846Z" fill="#3c4e61"/>
        <path d="M994.9453,210.6842h22.1387l-10.26,50.7578c-12.6,9.8994-29.5185,15.4795-46.9775,15.4795-37.7988,0-61.1983-21.7793-61.1983-53.8174,0-42.6582,30.7793-75.7773,78.2969-75.7773,23.0391,0,40.1387,7.38,50.5781,20.6992l-16.9189,14.039c-8.28-10.0791-19.44-14.2187-34.7383-14.2187-32.7588,0-53.6387,23.5791-53.6387,53.8174,0,20.6992,13.68,34.7383,40.3184,34.7383a51.7934,51.7934,0,0,0,24.48-5.9395Z" fill="#3c4e61"/>
        <path d="M1060.1064,149.1266h23.3985l-25.1992,125.9951h-23.3985Z" fill="#3c4e61"/>
        <path d="M1338.1064,149.1266h23.3985l-25.1992,125.9951h-23.3985Z" fill="#3c4e61"/>
        <path d="M1084.7646,262.1617l9.8995-18.3584c10.4394,8.459,25.7392,13.6787,41.038,13.6787,18.3594,0,30.2393-6.6591,30.2393-17.8193,0-23.3984-63.5381-11.1592-63.5381-51.6572,0-24.8389,22.3194-40.6787,54.8985-40.6787,16.1992,0,31.498,3.78,42.1181,10.62l-9.18,18.539c-9.3593-6.3-21.6-9.72-34.1992-9.72-19.0791,0-30.418,7.7393-30.418,18.7188,0,23.5791,63.5372,12.0595,63.5372,50.5781,0,25.02-22.4991,40.8584-55.6182,40.8584C1113.7432,276.9215,1094.6641,270.6217,1084.7646,262.1617Z" fill="#3c4e61"/>
        <path d="M1250.543,168.9264h-41.7578l3.9589-19.8H1319.66l-4.14,19.8h-41.7588l-21.0586,106.1953h-23.3994Z" fill="#3c4e61"/>
        <path d="M1365.0039,223.1041c0-42.6582,30.7783-75.7773,77.5762-75.7773,21.6,0,39.0586,7.38,47.8779,21.06l-16.9189,14.2188c-6.84-9.5391-17.64-14.7588-32.5791-14.7588-32.2188,0-52.378,24.2988-52.378,53.8174,0,20.8789,13.68,34.7383,39.419,34.7383,14.039,0,26.2783-4.68,35.8183-14.5791l13.68,14.76c-12.2392,14.0391-30.4189,20.3389-51.2978,20.3389C1387.8623,276.9215,1365.0039,254.9625,1365.0039,223.1041Z" fill="#3c4e61"/>
        <path d="M1484.8828,262.1617l9.8994-18.3584c10.4395,8.459,25.7393,13.6787,41.0381,13.6787,18.3594,0,30.2393-6.6591,30.2393-17.8193,0-23.3984-63.5381-11.1592-63.5381-51.6572,0-24.8389,22.3193-40.6787,54.8984-40.6787,16.1992,0,31.4981,3.78,42.1182,10.62l-9.18,18.539c-9.3594-6.3-21.6-9.72-34.1992-9.72-19.0791,0-30.418,7.7393-30.418,18.7188,0,23.5791,63.5371,12.0595,63.5371,50.5781,0,25.02-22.499,40.8584-55.6181,40.8584C1513.8613,276.9215,1494.7822,270.6217,1484.8828,262.1617Z" fill="#3c4e61"/>
        <path d="M449.4327.2564H177.3488c-6.333,0-12.5105,2.7356-17.6835,7.8306l-33.6463,33.14H435.9571Z" fill="#3a4d5e"/>
        <path d="M362.4105,72.2306H49.8764c-10.6963,0-21.0243,5.4482-29.0429,15.3205L0,113.2009H347.31Z" fill="#3a4d5e"/>
        <path d="M351.57,152.9938H113.4083l8.992,20.57c5.581,12.767,14.8266,20.4,24.7087,20.4H341.2541Z" fill="#3a4d5e"/>
        <path d="M462.2129,234.195h-255.09l14.348,21.7007c8.1211,12.2828,19.5553,19.27,31.5354,19.27H451.1638Z" fill="#3a4d5e"/>
      </g>
    </g>
  </g>
</svg>
