<svg id="Group_54" data-name="Group 54" xmlns="http://www.w3.org/2000/svg" width="185.925" height="33.28" viewBox="0 0 185.925 33.28">
  <path id="Path_35" data-name="Path 35" d="M326.733,667.412c-.192-.012-.384-.012-.589-.012a16.542,16.542,0,0,0-10.657,3.881,16.24,16.24,0,0,0-2.763,2.98,16.549,16.549,0,1,0,14.009-6.848Zm.577,23.681c2.079-1.213,3.989-2.307,5.875-3.448a1.073,1.073,0,0,0,.336-.781c.048-.913-.012-2.463.024-3.376,0-.421.012-.793.024-1.117a.67.67,0,0,1,.348-.553l.985-.517.553-.288a.213.213,0,0,1,.312.192c.012,2.115.036,4.746-.012,6.812a1.622,1.622,0,0,1-.613,1.153c-2.739,1.646-5.515,3.244-8.278,4.842-1,.577-1.8.12-1.8-1.033,0-.493-.012-.973-.012-1.466h0V690.48c-.012-2.018-.012-4.025.012-6.043a1.341,1.341,0,0,0-.877-1.454c-1.742-.817-3.436-1.718-5.334-2.679,0,2.391-.024,4.626.024,6.848.012.252.36.565.625.745.709.457,2.523,1.466,3.232,1.91.228.144.445.276.637.4a.343.343,0,0,1,.168.3v1.91a.3.3,0,0,1-.457.264c-1.778-1.021-4.289-2.487-5.887-3.46a1.486,1.486,0,0,1-.613-1.045c-.048-3.2-.048-6.4.012-9.6a1.744,1.744,0,0,1,.721-1.214q4.055-2.451,8.206-4.758a1.532,1.532,0,0,1,1.3.012c2.763,1.538,5.491,3.136,8.23,4.722,1.057.625,1.057,1.562-.024,2.127-.288.156-.577.3-.865.456s-.577.3-.865.457c-.432.228-.865.445-1.3.673-1.3.673-2.6,1.334-3.9,1.982a1.231,1.231,0,0,0-.8,1.286C327.333,686.491,327.309,688.69,327.309,691.093Z" transform="translate(-272.403 -667.4)" fill="#3a4d5e"/>
  <path id="Path_36" data-name="Path 36" d="M411.409,734.9a.645.645,0,0,0-.156.084c-.192.1-.372.192-.565.288-1.2.6-2.319,1.153-3.412,1.694-.216.108-.421.2-.637.312s-.457.228-.685.336a.562.562,0,0,1-.2.036.506.506,0,0,1-.24-.048c-.445-.216-.889-.433-1.346-.661-.421-.2-.841-.421-1.262-.625-.721-.36-1.478-.733-2.259-1.117-.12-.06-.252-.12-.384-.192-.06-.024-.108-.06-.168-.084h0a.135.135,0,0,1-.012-.228h0c.613-.348,1.189-.685,1.754-1.009.18-.108.372-.216.553-.324a.486.486,0,0,1,.108-.06c.312-.18.6-.348.9-.517.661-.384,1.31-.757,1.958-1.117a.778.778,0,0,1,.421-.084.632.632,0,0,1,.312.06c1.646.925,3.292,1.874,5.154,2.956.048.036.108.06.156.1A.107.107,0,0,1,411.409,734.9Z" transform="translate(-351.961 -723.87)" fill="#cc4e49"/>
  <path id="Path_37" data-name="Path 37" d="M684.308,676.8c0,2.884-2.559,4.253-6.055,4.253H671.2l2.691-13.456h6.5c2.908,0,4.518,1.093,4.518,3.076a3.6,3.6,0,0,1-2.4,3.436A2.728,2.728,0,0,1,684.308,676.8Zm-3.1-.036c0-1-.793-1.382-2.018-1.382h-3.773l-.649,3.328h3.677C680.151,678.7,681.208,678.053,681.208,676.767Zm-4.71-6.824-.637,3.172h3.172c1.61,0,2.6-.649,2.6-1.9,0-.889-.733-1.273-1.982-1.273Z" transform="translate(-590.558 -667.576)" fill="#cc4e49"/>
  <path id="Path_38" data-name="Path 38" d="M797.891,667.6h3.136l-2.691,13.456H795.2Z" transform="translate(-699.66 -667.576)" fill="#cc4e49"/>
  <path id="Path_39" data-name="Path 39" d="M855.7,669.618l-9.059,8.9h7.533l-.517,2.535H841.9l.409-2.018,9.071-8.9h-7.089l.517-2.535h11.306Z" transform="translate(-740.75 -667.576)" fill="#cc4e49"/>
  <path id="Path_40" data-name="Path 40" d="M641.928,816.6h2.811l-2.547,12.759h7.918l-.481,2.379H638.9Z" transform="translate(-562.139 -798.674)" fill="#3c4e61"/>
  <path id="Path_41" data-name="Path 41" d="M747.1,823.807a8.86,8.86,0,0,1,9.275-9.107c4.565,0,7.245,2.643,7.245,6.464a8.86,8.86,0,0,1-9.275,9.107C749.779,830.283,747.1,827.64,747.1,823.807Zm13.685-2.463c0-2.487-1.646-4.169-4.674-4.169a6.132,6.132,0,0,0-6.187,6.464c0,2.487,1.622,4.169,4.65,4.169A6.145,6.145,0,0,0,760.785,821.344Z" transform="translate(-657.339 -797.003)" fill="#3c4e61"/>
  <path id="Path_42" data-name="Path 42" d="M910.082,822.405h2.655l-1.237,6.1a9.211,9.211,0,0,1-5.647,1.862c-4.541,0-7.353-2.619-7.353-6.464,0-5.13,3.7-9.107,9.407-9.107,2.763,0,4.818.889,6.079,2.487l-2.031,1.682a4.95,4.95,0,0,0-4.169-1.706,6.187,6.187,0,0,0-6.44,6.464c0,2.487,1.646,4.169,4.842,4.169a6.336,6.336,0,0,0,2.944-.709Z" transform="translate(-790.549 -797.091)" fill="#3c4e61"/>
  <path id="Path_43" data-name="Path 43" d="M1037.928,816.6h2.812l-3.028,15.138H1034.9Z" transform="translate(-910.562 -798.674)" fill="#3c4e61"/>
  <path id="Path_44" data-name="Path 44" d="M1084.8,828.5l1.189-2.211a7.992,7.992,0,0,0,4.926,1.646c2.211,0,3.629-.805,3.629-2.139,0-2.811-7.629-1.346-7.629-6.211,0-2.98,2.679-4.89,6.6-4.89a9.622,9.622,0,0,1,5.058,1.274l-1.105,2.223a7.449,7.449,0,0,0-4.109-1.165c-2.295,0-3.652.925-3.652,2.247,0,2.835,7.629,1.454,7.629,6.079,0,3-2.7,4.914-6.68,4.914A9.5,9.5,0,0,1,1084.8,828.5Z" transform="translate(-954.466 -797.003)" fill="#3c4e61"/>
  <path id="Path_45" data-name="Path 45" d="M1213.722,818.979H1208.7l.481-2.379h12.843l-.492,2.379h-5.022l-2.535,12.759h-2.811Z" transform="translate(-1063.48 -798.674)" fill="#3c4e61"/>
  <path id="Path_46" data-name="Path 46" d="M1313,823.807c0-5.13,3.7-9.107,9.323-9.107,2.6,0,4.7.889,5.755,2.535l-2.031,1.706a4.513,4.513,0,0,0-3.917-1.778,6.158,6.158,0,0,0-6.3,6.464c0,2.511,1.646,4.169,4.734,4.169a5.753,5.753,0,0,0,4.3-1.754l1.646,1.778a7.87,7.87,0,0,1-6.163,2.439C1315.751,830.283,1313,827.64,1313,823.807Z" transform="translate(-1155.249 -797.003)" fill="#3c4e61"/>
  <path id="Path_47" data-name="Path 47" d="M1432.9,828.5l1.189-2.211a7.993,7.993,0,0,0,4.926,1.646c2.211,0,3.628-.805,3.628-2.139,0-2.811-7.629-1.346-7.629-6.211,0-2.98,2.679-4.89,6.6-4.89a9.621,9.621,0,0,1,5.058,1.274l-1.105,2.223a7.45,7.45,0,0,0-4.109-1.165c-2.295,0-3.652.925-3.652,2.247,0,2.835,7.629,1.454,7.629,6.079,0,3-2.7,4.914-6.68,4.914A9.523,9.523,0,0,1,1432.9,828.5Z" transform="translate(-1260.744 -797.003)" fill="#3c4e61"/>
  <path id="Path_48" data-name="Path 48" d="M164.855,667.7H132.163a3.042,3.042,0,0,0-2.127.937L126,672.626h37.245Z" transform="translate(-110.862 -667.664)" fill="#3a4d5e"/>
  <path id="Path_49" data-name="Path 49" d="M43.541,739.7H6a4.514,4.514,0,0,0-3.484,1.838L0,744.614H41.726Z" transform="translate(0 -731.013)" fill="#3a4d5e"/>
  <path id="Path_50" data-name="Path 50" d="M142.019,820.4H113.4l1.081,2.475c.673,1.538,1.778,2.451,2.968,2.451h23.32Z" transform="translate(-99.776 -802.018)" fill="#3a4d5e"/>
  <path id="Path_51" data-name="Path 51" d="M237.749,901.6H207.1l1.718,2.607a4.647,4.647,0,0,0,3.785,2.319h23.813Z" transform="translate(-182.218 -873.462)" fill="#3a4d5e"/>
</svg>
