<svg xmlns="http://www.w3.org/2000/svg" width="265.046" height="124.761" viewBox="0 0 265.046 124.761">
  <g id="Group_50" data-name="Group 50" transform="translate(-981.168 -467.258)">
    <path id="Path_52" data-name="Path 52" d="M2428.293,679.049c-.734-.024-1.467-.049-2.2-.049a62.121,62.121,0,0,0-40.169,14.645,63.26,63.26,0,0,0-10.439,11.246,62.4,62.4,0,1,0,52.809-25.842Zm2.176,89.262c7.848-4.572,15.06-8.679,22.15-12.982a4.033,4.033,0,0,0,1.3-2.958c.171-3.447-.024-9.291.1-12.738,0-1.589.024-2.983.1-4.205a2.49,2.49,0,0,1,1.32-2.078l3.692-1.931,2.1-1.1a.8.8,0,0,1,1.173.709c.049,7.995.147,17.9-.073,25.671a6.01,6.01,0,0,1-2.3,4.327c-10.317,6.234-20.781,12.224-31.221,18.238-3.765,2.176-6.8.44-6.821-3.912,0-1.858-.024-3.667-.024-5.525h0c0-1.3-.025-2.591-.025-3.912-.024-7.6-.024-15.182.049-22.786.025-2.689-.733-4.3-3.325-5.5-6.577-3.081-12.982-6.5-20.1-10.122,0,9.021-.073,17.432.1,25.818.024.953,1.344,2.151,2.347,2.787,2.665,1.736,9.486,5.55,12.2,7.212.88.538,1.663,1.027,2.4,1.491a1.3,1.3,0,0,1,.611,1.125l.024,7.212a1.139,1.139,0,0,1-1.711,1c-6.7-3.838-16.16-9.388-22.175-13.055a5.521,5.521,0,0,1-2.3-3.936c-.171-12.053-.2-24.131.024-36.184a6.4,6.4,0,0,1,2.714-4.547q15.293-9.241,30.952-17.921a5.942,5.942,0,0,1,4.914.025c10.415,5.794,20.708,11.809,31.025,17.8,4.01,2.323,4.01,5.892-.1,8.044-1.075.562-2.151,1.149-3.252,1.711-1.075.562-2.151,1.149-3.252,1.711-1.638.856-3.276,1.687-4.889,2.543q-7.335,3.814-14.743,7.481c-2.176,1.1-3.08,2.347-3.031,4.841C2430.566,750.952,2430.469,759.24,2430.469,768.31Z" transform="translate(-1242.271 -211.742)" fill="#fafafa"/>
    <path id="Path_53" data-name="Path 53" d="M2574.187,810.333c-.2.1-.416.2-.612.293-.709.367-1.418.709-2.127,1.076-4.523,2.249-8.728,4.352-12.86,6.406-.807.391-1.589.782-2.372,1.173-.856.416-1.711.831-2.567,1.271a1.6,1.6,0,0,1-.782.122,2.134,2.134,0,0,1-.9-.171c-1.687-.807-3.35-1.638-5.061-2.494-1.564-.782-3.154-1.565-4.767-2.372-2.738-1.345-5.55-2.763-8.533-4.23-.464-.22-.953-.465-1.418-.709-.2-.1-.416-.2-.636-.318h-.024a.5.5,0,0,1-.024-.856h.024c2.3-1.32,4.474-2.592,6.6-3.814.709-.416,1.393-.807,2.1-1.2.123-.073.269-.171.416-.244,1.149-.66,2.273-1.32,3.4-1.956,2.494-1.443,4.939-2.836,7.384-4.205a3.3,3.3,0,0,1,1.589-.318,2.449,2.449,0,0,1,1.173.245c6.234,3.5,12.4,7.066,19.413,11.149.2.122.415.245.611.367C2574.578,809.648,2574.554,810.161,2574.187,810.333Z" transform="translate(-1368.875 -301.488)" fill="#cc4e49"/>
    <path id="Path_54" data-name="Path 54" d="M2170.02,679.5H2046.751a11.512,11.512,0,0,0-8.019,3.545L2023.5,698.056h140.408Z" transform="translate(-985.245 -212.12)" fill="#fafafa"/>
    <path id="Path_55" data-name="Path 55" d="M1954.172,812.8H1812.59c-4.841,0-9.535,2.469-13.153,6.943L1790,831.356h157.35Z" transform="translate(-808.832 -312.83)" fill="#fafafa"/>
    <path id="Path_56" data-name="Path 56" d="M2108.091,962.5H2000.2l4.083,9.315c2.518,5.794,6.723,9.241,11.2,9.241h87.941Z" transform="translate(-967.642 -425.931)" fill="#fafafa"/>
    <path id="Path_57" data-name="Path 57" d="M2289.368,1113H2173.8l6.5,9.828c3.667,5.574,8.851,8.728,14.278,8.728h89.775Z" transform="translate(-1098.799 -539.636)" fill="#fafafa"/>
  </g>
</svg>
