<svg xmlns="http://www.w3.org/2000/svg" width="196" height="196" viewBox="0 0 196 196">
  <g id="Group_66" data-name="Group 66" transform="translate(-1210 -96.801)">
    <ellipse id="Ellipse_38" data-name="Ellipse 38" cx="82.242" cy="82.262" rx="82.242" ry="82.262" transform="translate(1226 113)" fill="#fff"/>
    <g id="Group_65" data-name="Group 65" transform="translate(1210 96.801)">
      <ellipse id="Ellipse_37" data-name="Ellipse 37" cx="74.242" cy="74.262" rx="74.242" ry="74.262" transform="translate(24 20.199)" fill="#fff"/>
      <g id="Group_4" data-name="Group 4">
        <path id="Path_71" data-name="Path 71" d="M2578.32,137.193c-1.134.547-29.83,14.817-31.12,15.482a3.158,3.158,0,0,1-2.385-.078c-2.62-1.29-24.044-11.885-28.7-14.192-.742-.352-1.485-.743-2.228-1.095-.313-.156-.665-.313-.978-.469h-.039a.8.8,0,0,1-.04-1.368h.04c3.558-2.072,27.249-15.716,31.081-17.867a5.089,5.089,0,0,1,4.066-.156c9.734,5.434,19.352,11.025,30.338,17.4.313.2.625.391.938.547a.776.776,0,0,1-.039,1.368A3.341,3.341,0,0,0,2578.32,137.193Z" transform="translate(-2447.968 -71.167)" fill="#4f7dad"/>
        <path id="Path_72" data-name="Path 72" d="M2544.022,96.746c-.039-1.215-.039-2.391-.117-3.567A97.989,97.989,0,0,0,2446.042,0c-3.058,0-6.075.118-9.054.392a97.322,97.322,0,0,0-54.438,22.971,98.593,98.593,0,0,0-16.187,17.6,98.146,98.146,0,0,0-10.543,95.178,97.9,97.9,0,0,0,27.082,36.73,97.485,97.485,0,0,0,57.886,22.971c1.764.078,3.527.157,5.291.157a97.665,97.665,0,0,0,55.888-17.483c.627-.431,1.293-.9,1.92-1.372l1.882-1.411a97.823,97.823,0,0,0,38.291-75.186c.039-.784.039-1.607.039-2.391A8.762,8.762,0,0,1,2544.022,96.746ZM2453.214,140.3c12.306-7.134,23.594-13.6,34.685-20.345,1.215-.745,1.96-3.018,2-4.626.274-5.37-.039-14.543.157-19.953,0-2.509.039-4.7.157-6.586a3.962,3.962,0,0,1,2.077-3.254l5.8-3.018,3.292-1.725a1.258,1.258,0,0,1,1.843,1.1c.078,12.5.2,28.028-.118,40.219-.078,2.352-1.685,5.645-3.6,6.782-16.147,9.761-32.569,19.13-48.913,28.577-5.879,3.41-10.66.666-10.66-6.115-.039-2.9-.039-5.762-.039-8.663h0c-.039-2.038-.039-4.077-.039-6.115-.039-11.878-.039-23.794.078-35.711.039-4.234-1.137-6.7-5.213-8.624-10.307-4.822-20.341-10.192-31.471-15.837,0,14.151-.117,27.283.156,40.454.04,1.529,2.117,3.371,3.684,4.351,4.155,2.7,14.854,8.7,19.126,11.29,1.372.823,2.625,1.607,3.723,2.313a2.069,2.069,0,0,1,.979,1.764l.039,11.29a1.792,1.792,0,0,1-2.7,1.568c-10.464-6.037-25.318-14.7-34.724-20.462a8.657,8.657,0,0,1-3.606-6.194c-.274-18.894-.313-37.789.04-56.683a10.057,10.057,0,0,1,4.233-7.134q23.985-14.465,48.48-28.067a9.373,9.373,0,0,1,7.682.039c16.3,9.094,32.451,18.5,48.6,27.871,6.271,3.646,6.271,9.212-.118,12.583-1.685.9-3.37,1.8-5.095,2.666-1.686.9-3.41,1.764-5.095,2.666-2.548,1.333-5.1,2.666-7.682,3.959q-11.522,5.939-23.084,11.721c-3.41,1.725-4.821,3.685-4.743,7.6C2453.331,113.092,2453.214,126.106,2453.214,140.3Z" transform="translate(-2348.1)" fill="#3a4d5e"/>
        <path id="Path_73" data-name="Path 73" d="M2579.259,136.624l-.938.469c-1.133.547-29.83,14.817-31.12,15.482a3.158,3.158,0,0,1-2.385-.078c-2.62-1.29-24.043-11.885-28.7-14.192-.743-.352-1.485-.743-2.228-1.095-.313-.156-.665-.313-.978-.469h-.039a.8.8,0,0,1-.04-1.368h.04c3.558-2.072,27.249-15.716,31.081-17.867a5.089,5.089,0,0,1,4.066-.156c9.735,5.434,19.352,11.025,30.338,17.4.313.2.625.391.938.547A.744.744,0,0,1,2579.259,136.624Z" transform="translate(-2447.968 -71.107)" fill="#cc4e49"/>
      </g>
    </g>
  </g>
</svg>
